<svg xmlns="http://www.w3.org/2000/svg" width="13" height="13" viewBox="0 0 13 13"><g><path d="M6.5,6.5 m-5.5,0 a5.5,5.5 0 1,0 11,0 a5.5,5.5 0 1,0 -11,0" fill="hsl(210, 74%, 100%)" opacity="0.25"/><path d="M6.5,6.5 m-5,0 a5,5 0 1,0 10,0 a5,5 0 1,0 -10,0" fill="hsl(210, 74%, 100%)" opacity="0.5"/><path d="M6.5,6.5 m-4.5,0 a4.5,4.5 0 1,0 9,0 a4.5,4.5 0 1,0 -9,0" fill="hsl(210, 74%, 100%)" opacity="0.75"/><path d="M6.5,6.5 m-4,0 a4,4 0 1,0 8,0 a4,4 0 1,0 -8,0" fill="hsl(210, 74%, 100%)"/><path d="M6.5,6.5 m-3.5,0 a3.5,3.5 0 1,0 7,0 a3.5,3.5 0 1,0 -7,0" fill="hsl(210, 75%, 49%)"/><path d="M6.5,6.5 m-2.5,0 a2.5,2.5 0 1,0 5,0 a2.5,2.5 0 1,0 -5,0" fill="hsl(210, 74%, 100%)"/><path d="M6.5,6.5 m-1.5,0 a1.5,1.5 0 1,0 3,0 a1.5,1.5 0 1,0 -3,0" fill="hsl(210, 75%, 49%)"/></g></svg>