<svg xmlns="http://www.w3.org/2000/svg" width="11" height="11" viewBox="0 0 11 11"><g><path d="M5.5,5.5 m-4.2,0 a4.2,4.2 0 1,0 8.4,0 a4.2,4.2 0 1,0 -8.4,0" fill="hsl(210, 74%, 100%)" opacity="0.25"/><path d="M5.5,5.5 m-3.7,0 a3.7,3.7 0 1,0 7.4,0 a3.7,3.7 0 1,0 -7.4,0" fill="hsl(210, 74%, 100%)" opacity="0.5"/><path d="M5.5,5.5 m-3.2,0 a3.2,3.2 0 1,0 6.4,0 a3.2,3.2 0 1,0 -6.4,0" fill="hsl(210, 74%, 100%)" opacity="0.75"/><path d="M5.5,5.5 m-2.7,0 a2.7,2.7 0 1,0 5.4,0 a2.7,2.7 0 1,0 -5.4,0" fill="hsl(210, 74%, 100%)"/><path d="M5.5,5.5 m-2.2,0 a2.2,2.2 0 1,0 4.4,0 a2.2,2.2 0 1,0 -4.4,0" fill="hsl(210, 75%, 49%)"/></g></svg>