<svg xmlns="http://www.w3.org/2000/svg" width="11" height="11" viewBox="0 0 11 11"><g><path d="M5.5,5.5 m-4,0 a4,4 0 1,0 8,0 a4,4 0 1,0 -8,0" fill="hsl(210, 74%, 100%)" opacity="0.25"/><path d="M5.5,5.5 m-3.5,0 a3.5,3.5 0 1,0 7,0 a3.5,3.5 0 1,0 -7,0" fill="hsl(210, 74%, 100%)" opacity="0.5"/><path d="M5.5,5.5 m-3,0 a3,3 0 1,0 6,0 a3,3 0 1,0 -6,0" fill="hsl(210, 74%, 100%)" opacity="0.75"/><path d="M5.5,5.5 m-2.5,0 a2.5,2.5 0 1,0 5,0 a2.5,2.5 0 1,0 -5,0" fill="hsl(210, 74%, 100%)"/><path d="M5.5,5.5 m-2,0 a2,2 0 1,0 4,0 a2,2 0 1,0 -4,0" fill="hsl(210, 75%, 49%)"/></g></svg>